<?xml version="1.0"?>
<svg xmlns="http://www.w3.org/2000/svg" xmlns:xlink="http://www.w3.org/1999/xlink" xmlns:svgjs="http://svgjs.com/svgjs" version="1.1" width="512" height="512" x="0" y="0" viewBox="0 0 512 512" style="enable-background:new 0 0 512 512" xml:space="preserve" class=""><g><path xmlns="http://www.w3.org/2000/svg" d="m392 488h-272a48 48 0 0 1 -48-48v-368a48 48 0 0 1 48-48h224l96 96v320a48 48 0 0 1 -48 48z" fill="#fcf7cf" data-original="#cfd2fc" style="" class=""/><path xmlns="http://www.w3.org/2000/svg" d="m72 360h368a0 0 0 0 1 0 0v80a48 48 0 0 1 -48 48h-272a48 48 0 0 1 -48-48v-80a0 0 0 0 1 0 0z" fill="#ffe400" data-original="#5153ff" style="" class=""/><g xmlns="http://www.w3.org/2000/svg" fill="#8690fa"><path d="m440 120h-48a48 48 0 0 1 -48-48v-48z" fill="#ffe400" data-original="#8690fa" style="" class=""/><circle cx="288" cy="216" r="8" fill="#ffe400" data-original="#8690fa" style="" class=""/><circle cx="224" cy="216" r="8" fill="#ffe400" data-original="#8690fa" style="" class=""/><circle cx="256" cy="216" r="8" fill="#ffe400" data-original="#8690fa" style="" class=""/><path d="m184 272a8.009 8.009 0 0 1 -8-8v-32a23.9 23.9 0 0 0 -6.131-16 23.9 23.9 0 0 0 6.131-16v-32a8.009 8.009 0 0 1 8-8 8 8 0 0 0 0-16 24.028 24.028 0 0 0 -24 24v32a8.009 8.009 0 0 1 -8 8 8 8 0 0 0 0 16 8.009 8.009 0 0 1 8 8v32a24.028 24.028 0 0 0 24 24 8 8 0 0 0 0-16z" fill="#ffe400" data-original="#8690fa" style="" class=""/><path d="m360 208a8.009 8.009 0 0 1 -8-8v-32a24.028 24.028 0 0 0 -24-24 8 8 0 0 0 0 16 8.009 8.009 0 0 1 8 8v32a23.9 23.9 0 0 0 6.131 16 23.9 23.9 0 0 0 -6.131 16v32a8.009 8.009 0 0 1 -8 8 8 8 0 0 0 0 16 24.028 24.028 0 0 0 24-24v-32a8.009 8.009 0 0 1 8-8 8 8 0 0 0 0-16z" fill="#ffe400" data-original="#8690fa" style="" class=""/></g><path xmlns="http://www.w3.org/2000/svg" d="m240 384a8 8 0 0 0 -8 8v48a8 8 0 0 1 -16 0 8 8 0 0 0 -16 0 24 24 0 0 0 48 0v-48a8 8 0 0 0 -8-8z" fill="#ffffff" data-original="#ffffff" style=""/><path xmlns="http://www.w3.org/2000/svg" d="m288 400h16a8 8 0 0 0 0-16h-16a24 24 0 0 0 0 48 8 8 0 0 1 0 16h-16a8 8 0 0 0 0 16h16a24 24 0 0 0 0-48 8 8 0 0 1 0-16z" fill="#ffffff" data-original="#ffffff" style=""/></g></svg>
